<svg width="17" height="18" viewBox="0 0 17 18" fill="none" xmlns="http://www.w3.org/2000/svg">
<path fill-rule="evenodd" clip-rule="evenodd" d="M10.0481 12.2266C9.09081 12.8225 7.9606 13.1667 6.75 13.1667C3.29822 13.1667 0.5 10.3684 0.5 6.91666C0.5 3.46488 3.29822 0.666656 6.75 0.666656C10.2018 0.666656 13 3.46488 13 6.91666C13 8.55474 12.3698 10.0456 11.3387 11.1601L16.0893 15.9107C16.4147 16.2362 16.4147 16.7638 16.0893 17.0892C15.7638 17.4147 15.2362 17.4147 14.9107 17.0892L10.0481 12.2266ZM11.3333 6.91666C11.3333 9.44796 9.28131 11.5 6.75 11.5C4.21869 11.5 2.16667 9.44796 2.16667 6.91666C2.16667 4.38535 4.21869 2.33332 6.75 2.33332C9.28131 2.33332 11.3333 4.38535 11.3333 6.91666Z" fill="white"/>
</svg>
